<?xml version="1.0" standalone="no"?>
<!DOCTYPE svg PUBLIC "-//W3C//DTD SVG 20010904//EN"
 "http://www.w3.org/TR/2001/REC-SVG-20010904/DTD/svg10.dtd">
<svg version="1.0" xmlns="http://www.w3.org/2000/svg"
 width="624.000000pt" height="624.000000pt" viewBox="0 0 624.000000 624.000000"
 preserveAspectRatio="xMidYMid meet">
<metadata>
Created by potrace 1.14, written by Peter Selinger 2001-2017
</metadata>
<g transform="translate(0.000000,624.000000) scale(0.100000,-0.100000)"
fill="#000000" stroke="none">
<path d="M2967 6128 c-6 -4 -15 -5 -19 -2 -4 3 -16 0 -27 -6 -14 -7 -22 -7
-26 0 -5 8 -11 7 -21 -1 -11 -9 -14 -9 -14 1 0 10 -3 10 -14 1 -10 -9 -16 -9
-21 -1 -4 7 -11 7 -18 2 -7 -5 -23 -8 -37 -8 -14 1 -31 -5 -39 -12 -11 -10
-16 -11 -21 -1 -5 6 -13 8 -20 4 -12 -7 -77 -16 -122 -16 -10 0 -18 -5 -18
-11 0 -5 -7 -8 -15 -4 -8 3 -15 1 -15 -4 0 -5 -7 -7 -15 -4 -8 4 -22 1 -30 -6
-10 -8 -15 -9 -15 -2 0 6 -7 9 -15 6 -8 -4 -12 -10 -9 -15 3 -5 -2 -6 -11 -3
-8 4 -22 1 -30 -6 -12 -10 -15 -10 -15 0 0 10 -3 10 -15 0 -8 -6 -19 -9 -25
-5 -5 3 -10 1 -10 -5 0 -6 -8 -11 -17 -10 -24 3 -63 -10 -63 -20 0 -5 -8 -7
-17 -5 -10 1 -22 0 -28 -4 -5 -3 -14 -6 -20 -7 -5 0 -16 -2 -23 -2 -7 -1 -11
-6 -8 -10 2 -4 -3 -8 -12 -9 -41 -4 -58 -9 -70 -23 -8 -8 -11 -9 -7 -3 4 8 1
11 -9 7 -8 -3 -17 -11 -19 -18 -3 -8 -17 -12 -32 -11 -16 2 -28 -2 -32 -11 -4
-12 -8 -12 -21 -2 -12 10 -14 10 -8 1 4 -8 1 -13 -8 -13 -9 0 -16 -4 -16 -10
0 -5 -7 -7 -15 -4 -8 4 -15 1 -15 -4 0 -6 -9 -9 -20 -7 -11 2 -18 0 -15 -4 4
-7 -29 -22 -44 -20 -2 0 -7 -4 -11 -11 -6 -10 -24 -17 -53 -19 -5 -1 -5 -6 -1
-12 4 -7 1 -10 -7 -7 -8 3 -20 -2 -27 -11 -8 -9 -10 -10 -7 -2 8 14 -44 -15
-56 -32 -3 -5 -9 -8 -13 -8 -19 3 -27 0 -22 -8 5 -8 -29 -25 -46 -22 -5 1 -8
-4 -8 -11 0 -6 -3 -8 -7 -5 -3 4 -12 -1 -20 -11 -10 -11 -12 -12 -8 -2 4 8 -1
6 -10 -5 -9 -11 -21 -20 -28 -20 -7 -1 -11 -7 -9 -15 2 -8 0 -12 -4 -8 -4 4
-13 3 -21 -3 -7 -6 -13 -8 -13 -3 0 5 -7 -2 -16 -14 -8 -12 -24 -22 -35 -22
-11 0 -17 -4 -14 -10 3 -5 1 -10 -4 -10 -12 0 -42 -23 -79 -60 -14 -14 -22
-19 -17 -11 5 9 -1 7 -19 -4 -14 -10 -26 -25 -26 -34 0 -12 -2 -13 -9 -3 -6
10 -10 8 -14 -8 -3 -12 -10 -19 -16 -15 -6 3 -11 1 -11 -4 0 -6 -8 -11 -17
-11 -15 0 -16 -2 -3 -10 12 -8 11 -10 -7 -10 -13 0 -24 -8 -28 -20 -3 -11 -9
-19 -13 -17 -4 1 -22 -13 -39 -30 -18 -18 -37 -33 -43 -33 -5 0 -9 -6 -8 -12
2 -7 -3 -12 -9 -10 -7 1 -13 -5 -13 -14 0 -8 -4 -12 -10 -9 -9 6 -14 -7 -11
-27 0 -4 -5 -5 -13 -2 -8 3 -17 0 -22 -7 -4 -8 -3 -10 4 -5 8 5 10 2 6 -8 -3
-9 -9 -15 -12 -14 -18 2 -35 -3 -29 -8 3 -3 -5 -16 -19 -29 -13 -12 -24 -25
-24 -29 0 -9 -38 -45 -43 -40 -2 3 -10 -9 -17 -26 -7 -16 -16 -27 -21 -24 -5
3 -9 -2 -9 -10 0 -9 -7 -16 -15 -16 -8 0 -15 -9 -15 -21 0 -11 -4 -17 -10 -14
-5 3 -12 -6 -16 -20 -3 -14 -13 -25 -23 -25 -14 0 -14 -2 -1 -10 13 -8 12 -10
-2 -10 -10 0 -18 -5 -18 -11 0 -6 -7 -17 -15 -26 -8 -8 -12 -19 -9 -25 4 -7 2
-8 -5 -4 -7 5 -15 -3 -22 -22 -6 -17 -17 -33 -26 -36 -9 -4 -13 -13 -9 -22 3
-8 2 -13 -3 -10 -4 3 -17 -10 -27 -29 -10 -19 -22 -35 -26 -35 -5 0 -8 -12 -8
-26 0 -14 -4 -23 -10 -19 -9 6 -14 -8 -7 -20 1 -2 -6 -10 -16 -17 -10 -8 -17
-20 -15 -28 2 -10 -3 -14 -14 -12 -12 2 -16 -2 -12 -11 3 -8 -2 -22 -11 -31
-12 -12 -13 -16 -3 -16 8 -1 7 -6 -6 -15 -11 -8 -15 -19 -10 -27 4 -7 4 -10
-1 -6 -9 9 -37 -40 -30 -52 3 -4 -2 -11 -11 -14 -9 -3 -14 -12 -12 -18 3 -7
-1 -19 -9 -26 -7 -8 -11 -18 -7 -23 3 -5 -2 -12 -10 -15 -9 -3 -13 -10 -10
-16 3 -5 -2 -19 -13 -30 -10 -12 -12 -18 -5 -14 7 4 3 -9 -8 -29 -12 -21 -19
-42 -17 -49 2 -6 -2 -17 -10 -24 -7 -7 -13 -22 -13 -33 0 -11 -7 -31 -16 -44
-9 -14 -13 -25 -9 -25 4 0 1 -8 -6 -17 -12 -14 -12 -16 1 -9 8 4 6 0 -4 -8
-11 -9 -17 -19 -13 -22 4 -4 2 -13 -5 -21 -6 -7 -8 -16 -5 -19 3 -3 -1 -20 -8
-39 -8 -18 -11 -35 -8 -39 4 -3 1 -6 -5 -6 -7 0 -12 -5 -12 -11 0 -5 6 -7 13
-3 8 5 8 2 -2 -9 -7 -9 -10 -17 -6 -17 4 0 3 -6 -3 -13 -6 -7 -7 -18 -2 -26 9
-16 2 -43 -10 -36 -4 3 -10 -4 -13 -15 -3 -11 0 -20 6 -20 7 0 5 -5 -3 -10 -8
-5 -12 -10 -8 -10 6 0 -2 -35 -18 -74 -6 -15 -4 -17 7 -11 11 7 12 6 2 -6 -6
-8 -12 -30 -14 -49 -2 -19 -8 -41 -13 -49 -9 -11 -8 -13 3 -7 10 7 12 4 7 -12
-4 -11 -9 -30 -11 -42 -2 -12 -10 -29 -17 -38 -7 -9 -8 -13 -2 -9 7 4 11 -5
12 -24 0 -20 -3 -27 -11 -22 -9 5 -9 3 0 -8 8 -10 9 -27 3 -54 -6 -25 -5 -44
1 -51 7 -8 7 -14 0 -19 -14 -8 -10 -55 4 -55 5 0 4 -4 -4 -9 -13 -8 -13 -12 0
-27 8 -10 9 -15 2 -11 -15 9 -16 -61 -1 -80 5 -7 5 -14 -2 -18 -5 -3 -7 -18
-4 -32 5 -18 3 -24 -4 -19 -8 5 -10 2 -6 -8 3 -9 11 -13 16 -10 6 4 5 -2 -1
-14 -8 -15 -8 -22 2 -25 9 -4 8 -8 -3 -16 -9 -6 -10 -11 -3 -11 6 0 9 -9 5
-22 -4 -16 -2 -19 9 -13 11 6 12 5 2 -6 -17 -17 -17 -43 0 -33 8 5 8 2 -2 -9
-7 -9 -9 -17 -4 -17 5 0 8 -13 7 -30 -1 -16 2 -30 7 -30 5 0 9 -5 9 -11 0 -5
-6 -7 -12 -3 -9 5 -9 3 1 -9 7 -9 11 -26 8 -37 -3 -11 -2 -20 3 -20 4 0 6 -14
4 -31 -2 -16 0 -28 5 -24 5 3 7 -4 4 -15 -3 -11 2 -31 11 -44 10 -16 12 -27 6
-31 -6 -4 -7 -13 -1 -23 4 -9 12 -35 16 -57 5 -22 9 -43 10 -47 2 -5 3 -17 4
-29 1 -13 5 -18 14 -13 7 5 6 0 -3 -11 -12 -15 -12 -17 -1 -10 11 6 13 4 8 -8
-3 -10 -2 -17 3 -17 5 0 7 -9 5 -20 -2 -11 -1 -20 3 -20 4 0 9 -12 10 -27 1
-15 7 -32 12 -37 6 -6 10 -20 10 -33 0 -13 5 -23 11 -23 6 0 9 -6 6 -12 -2 -7
2 -21 11 -30 12 -15 13 -18 1 -18 -10 -1 -9 -4 4 -14 10 -8 18 -17 18 -20 -3
-28 1 -46 9 -41 6 3 7 -1 4 -9 -4 -10 -1 -16 7 -16 7 0 10 -3 6 -6 -3 -4 0
-19 9 -35 8 -16 11 -29 7 -29 -4 0 4 -10 16 -21 17 -16 20 -24 11 -29 -9 -6
-6 -11 10 -20 18 -9 20 -14 9 -21 -11 -6 -10 -9 4 -15 9 -3 17 -12 17 -20 0
-8 4 -14 10 -14 5 0 7 -7 4 -15 -4 -8 -1 -15 6 -15 6 0 8 -5 5 -10 -3 -6 -1
-10 5 -10 6 0 8 -5 5 -10 -3 -5 -1 -10 5 -10 6 0 8 -5 5 -10 -3 -6 -1 -10 4
-10 6 0 11 -7 11 -15 0 -9 7 -18 15 -21 8 -4 15 -10 15 -16 0 -5 -5 -6 -12 -2
-6 4 -3 -4 8 -18 10 -14 23 -23 28 -20 5 3 6 0 2 -6 -3 -6 -2 -13 4 -17 6 -4
8 -11 5 -16 -4 -5 -1 -9 4 -9 6 0 11 -7 11 -15 0 -8 5 -15 10 -15 6 0 10 -5
10 -10 0 -12 41 -73 53 -78 4 -2 7 -10 7 -18 0 -8 7 -17 15 -20 8 -4 12 -10 9
-15 -3 -5 -2 -9 3 -9 4 0 14 -14 21 -30 8 -17 18 -28 23 -24 5 3 9 -2 9 -10 0
-9 5 -16 10 -16 6 0 10 -7 10 -16 0 -8 4 -12 10 -9 6 3 10 0 10 -8 0 -8 7 -18
16 -21 9 -4 14 -13 10 -22 -3 -8 -2 -13 2 -10 4 2 18 -9 32 -25 14 -16 37 -43
52 -61 16 -17 28 -35 28 -40 0 -4 8 -8 17 -8 9 0 13 -3 10 -6 -4 -4 9 -21 28
-39 19 -17 35 -38 35 -46 0 -11 2 -12 9 -1 6 10 10 8 14 -8 3 -12 10 -19 16
-15 6 3 11 1 11 -5 0 -17 60 -71 71 -64 5 3 9 -2 9 -10 0 -8 5 -18 12 -22 7
-5 8 -3 3 7 -8 12 -6 12 8 0 9 -7 14 -17 11 -22 -2 -5 6 -11 20 -15 14 -3 24
-9 23 -13 -1 -3 2 -6 6 -6 5 0 13 -8 18 -18 6 -9 17 -17 25 -17 8 0 13 -4 10
-9 -4 -5 7 -15 23 -22 16 -7 27 -17 25 -21 -3 -4 2 -8 11 -8 8 0 18 -7 22 -16
3 -8 12 -13 20 -10 8 3 11 1 8 -4 -3 -6 1 -10 10 -10 11 0 15 -5 11 -16 -3 -8
-2 -13 3 -9 5 3 15 -1 23 -8 7 -7 18 -14 23 -15 6 -1 17 -7 26 -14 8 -7 22
-14 30 -16 8 -2 18 -10 22 -18 5 -8 12 -12 18 -9 5 4 9 1 9 -4 0 -6 7 -11 15
-11 8 0 15 -5 15 -11 0 -5 4 -8 9 -4 6 3 14 -2 19 -11 5 -9 11 -16 13 -15 17
2 49 -14 49 -25 0 -8 10 -14 26 -14 17 0 23 -4 18 -12 -5 -8 0 -7 11 2 10 8
16 11 13 5 -9 -16 23 -37 59 -38 7 0 10 -4 7 -9 -3 -4 2 -8 10 -8 9 0 16 -4
16 -10 0 -5 5 -10 11 -10 5 0 7 6 4 13 -4 6 0 4 8 -5 8 -10 17 -15 20 -11 4 3
7 1 7 -5 0 -7 11 -12 24 -12 13 0 26 -4 28 -9 2 -5 12 -11 23 -13 11 -1 26 -9
33 -16 8 -7 18 -10 23 -7 5 4 9 1 9 -5 0 -7 7 -10 15 -6 8 3 15 1 15 -5 0 -6
5 -7 10 -4 6 3 10 2 10 -2 0 -5 10 -9 22 -10 11 -1 24 -7 28 -14 6 -8 9 -8 15
1 6 9 9 9 15 1 4 -7 16 -13 28 -14 11 0 18 -5 16 -9 -3 -4 1 -9 8 -9 7 -1 24
-3 38 -4 13 -1 26 -8 28 -14 3 -8 9 -8 24 0 15 8 19 8 14 0 -6 -9 7 -16 17 -9
1 1 13 -5 27 -12 14 -8 36 -15 50 -17 41 -4 75 -10 75 -13 0 -3 23 -7 68 -11
15 -2 27 -7 27 -11 0 -4 8 -8 18 -8 10 0 24 -6 31 -13 8 -7 11 -7 8 -1 -4 7 3
12 18 12 14 0 25 -4 25 -9 0 -14 28 -11 33 4 4 10 6 10 6 0 1 -8 14 -13 31
-13 17 0 30 -5 30 -12 0 -8 3 -9 8 -3 9 12 32 13 51 1 9 -6 12 -5 7 2 -4 7 1
10 14 9 11 -1 20 -5 20 -9 0 -4 12 -6 28 -4 15 1 35 -2 46 -7 10 -5 16 -5 13
0 -6 10 138 8 154 -3 7 -4 9 -3 6 3 -7 11 71 9 102 -2 9 -4 11 0 7 11 -5 14
-4 15 9 4 8 -7 23 -10 34 -7 10 2 26 0 36 -6 13 -7 16 -6 11 2 -10 15 7 14 23
-2 8 -6 11 -7 8 -1 -4 7 6 11 26 11 18 0 52 4 77 8 25 4 66 8 93 8 35 1 46 5
42 15 -3 8 0 10 8 5 15 -9 107 -11 101 -2 -6 11 22 18 50 13 15 -2 26 0 26 6
0 6 4 9 9 5 5 -3 12 -1 16 5 3 5 19 8 35 6 17 -2 30 1 30 6 0 5 5 6 10 3 6 -4
17 -2 24 4 7 6 21 12 32 14 10 1 25 6 32 10 7 5 12 3 12 -3 0 -6 5 -8 10 -5 6
4 8 10 5 14 -2 5 3 8 13 8 26 0 82 15 82 22 0 6 17 10 58 13 6 1 12 5 12 10 0
4 8 8 18 8 10 0 23 5 30 12 7 7 12 9 12 5 0 -4 13 -1 29 7 16 9 31 12 35 9 3
-4 6 -1 6 5 0 7 3 12 8 11 16 -2 51 14 47 21 -3 5 6 7 20 6 14 -2 30 3 36 10
6 8 15 11 20 9 4 -3 17 3 28 14 11 11 22 17 25 14 3 -4 6 -1 6 5 0 6 7 9 15 6
8 -4 15 -1 15 6 0 6 5 8 10 5 6 -3 10 -1 10 5 0 6 5 8 10 5 6 -3 10 -1 10 6 0
7 3 10 6 7 5 -6 105 49 132 72 6 6 12 8 12 4 0 -3 7 -1 15 6 8 7 12 16 9 21
-3 5 2 6 10 3 17 -6 49 19 38 30 -3 4 0 4 9 1 8 -3 24 3 36 14 11 11 24 17 27
14 3 -4 6 -1 6 5 0 7 6 12 14 12 8 0 16 7 20 15 3 8 11 15 18 15 7 0 28 14 46
31 17 16 32 26 32 22 0 -4 5 0 11 10 6 9 15 15 20 11 5 -3 8 0 7 8 -2 7 3 12
10 11 6 -2 12 2 12 9 0 6 3 9 6 6 3 -3 23 12 45 34 21 22 39 37 39 34 0 -3 18
12 40 33 22 21 40 43 40 49 0 6 5 14 12 18 7 5 8 3 3 -6 -4 -7 22 17 58 54 37
37 67 71 67 77 0 6 3 8 8 6 4 -2 24 13 45 34 21 22 36 39 32 39 -3 0 0 6 7 14
7 8 18 11 23 8 6 -3 3 3 -5 13 -9 11 -10 16 -2 11 7 -4 12 -2 12 4 0 6 5 8 10
5 6 -3 10 3 10 14 0 12 5 20 12 18 7 -1 12 3 13 9 0 6 13 22 28 36 16 15 28
29 28 32 -3 20 0 26 12 23 7 -1 12 7 11 20 -1 13 2 21 5 18 4 -2 14 5 22 17 8
11 19 26 26 33 7 7 9 15 6 19 -4 3 -2 6 4 6 6 0 16 14 22 31 6 17 15 28 21 24
5 -3 10 3 10 14 0 12 4 21 10 21 5 0 9 3 9 8 -1 4 0 16 1 27 1 14 3 16 7 6 4
-9 11 -2 21 20 8 19 14 37 14 41 -1 5 3 8 8 8 6 0 10 7 10 15 0 9 7 18 16 22
8 3 13 12 10 19 -3 8 -1 14 5 14 6 0 7 5 4 10 -3 6 -1 10 5 10 6 0 9 4 6 9 -3
5 1 12 10 15 8 3 12 10 9 16 -3 6 0 13 9 16 9 3 12 12 9 21 -5 12 -3 14 8 8
12 -7 12 -6 1 7 -10 13 -10 17 4 22 9 3 14 13 11 20 -3 8 1 17 8 20 8 3 12 14
10 26 -2 11 0 18 6 15 5 -4 9 0 9 7 0 7 7 26 15 42 8 15 17 40 20 54 2 14 8
28 12 31 9 7 14 21 21 63 2 16 9 28 14 28 6 0 8 7 4 15 -3 8 -2 15 3 15 4 0 8
6 9 13 5 47 12 71 23 77 6 4 8 13 5 19 -4 6 -2 11 4 11 6 0 8 5 5 10 -4 6 -1
17 5 25 10 12 10 15 -1 15 -12 0 -11 2 0 9 8 5 16 20 17 33 8 70 17 114 26
125 5 7 7 17 3 23 -3 5 -2 10 2 10 5 0 9 9 10 20 1 13 -2 18 -9 14 -6 -4 -4 3
5 17 19 27 22 43 6 33 -8 -4 -8 -1 -1 12 5 11 7 25 5 32 -3 6 -1 12 4 12 5 0
8 12 7 28 -1 15 4 33 10 41 9 12 8 13 -3 6 -10 -6 -12 -4 -5 6 14 22 14 70 1
62 -7 -4 -6 0 2 10 18 23 26 121 8 111 -9 -6 -9 -4 -1 7 5 8 10 26 9 41 0 15
5 30 13 33 12 5 12 8 -2 24 -11 13 -14 21 -7 26 6 3 11 13 11 21 0 10 -5 12
-12 8 -10 -6 -10 -4 -2 7 12 14 11 51 -1 123 -5 26 -4 36 4 32 7 -4 9 -1 5 8
-3 9 -11 13 -18 9 -8 -5 -8 -3 -1 8 6 8 9 28 8 44 -2 17 -3 40 -4 53 -1 12 -7
22 -13 22 -7 0 -7 3 -1 8 13 10 18 42 6 42 -5 0 -8 8 -6 18 1 9 -3 23 -9 31
-9 12 -8 13 2 7 12 -7 12 -4 2 13 -8 17 -8 26 0 36 8 10 8 15 -1 21 -8 5 -9 3
-4 -6 5 -9 4 -11 -4 -6 -9 6 -9 11 0 22 6 8 7 14 2 14 -6 0 -8 12 -5 26 3 16
1 25 -5 21 -5 -3 -8 7 -7 24 1 16 -3 29 -9 29 -6 0 -7 3 -4 6 3 4 2 16 -4 27
-7 12 -7 17 -1 13 6 -4 8 2 5 14 -3 11 -9 20 -13 20 -5 0 -6 10 -2 22 3 12 1
19 -4 15 -6 -3 -9 7 -8 24 1 18 -4 33 -14 39 -10 5 -12 10 -6 10 13 0 14 30 1
30 -5 0 -7 6 -4 14 3 7 1 18 -3 22 -5 5 -11 18 -13 29 -5 27 -15 55 -32 87 -9
19 -10 28 -2 31 6 2 3 11 -9 23 -11 11 -18 26 -16 34 3 7 -3 17 -11 22 -9 5
-14 15 -10 24 3 9 1 19 -6 23 -7 4 -13 18 -14 29 -1 12 -5 22 -10 22 -4 0 -5
5 -2 10 3 6 -1 13 -10 16 -13 6 -14 8 -3 15 10 7 10 9 1 9 -7 0 -13 6 -13 14
0 17 -25 67 -31 61 -3 -2 -6 6 -6 18 -1 12 -7 23 -13 25 -5 2 -8 8 -4 13 3 5
-2 12 -11 15 -13 5 -13 9 -3 22 11 13 10 15 -4 10 -11 -5 -15 -2 -14 10 2 9
-7 27 -20 41 -13 14 -21 28 -18 33 3 4 0 8 -6 8 -6 0 -9 4 -5 9 3 5 -5 20 -18
33 -13 13 -22 29 -19 36 2 6 -3 15 -12 18 -9 3 -16 12 -16 20 0 8 -5 14 -11
14 -5 0 -8 4 -4 9 3 6 0 13 -7 18 -7 4 -22 25 -33 47 -11 21 -26 40 -32 43 -7
3 -13 9 -13 14 0 8 -20 35 -47 64 -7 8 -13 17 -13 21 0 3 -10 15 -22 25 -11
11 -17 19 -13 19 4 0 -9 15 -29 34 -20 19 -36 42 -36 51 0 12 -5 15 -17 11
-10 -4 -14 -4 -11 0 4 3 -3 15 -15 26 -12 11 -15 16 -7 12 8 -5 -15 22 -52 58
-37 36 -64 69 -61 72 4 3 0 6 -7 6 -7 0 -33 20 -57 45 -26 27 -49 43 -56 39
-7 -4 -9 -4 -5 0 7 9 -31 56 -45 56 -5 0 -20 12 -33 28 -13 15 -24 23 -24 18
0 -4 -13 6 -30 24 -16 18 -30 28 -30 24 -1 -5 -10 2 -20 15 -11 13 -20 20 -20
17 0 -4 -15 7 -32 23 -18 17 -37 31 -41 31 -5 0 -20 9 -34 20 -14 11 -30 17
-36 13 -6 -4 -8 0 -4 11 4 9 3 15 -2 12 -5 -3 -14 1 -21 10 -7 8 -19 13 -27
10 -7 -3 -13 0 -13 6 0 15 -31 37 -53 38 -10 0 -20 7 -23 15 -4 8 -10 13 -14
10 -4 -3 -24 6 -43 19 -19 13 -38 22 -41 18 -3 -3 -6 0 -6 7 0 7 -4 9 -10 6
-5 -3 -10 -1 -10 6 0 7 -3 9 -7 6 -3 -4 -15 1 -26 10 -15 13 -19 14 -13 3 6
-12 4 -11 -6 1 -7 9 -30 21 -50 28 -21 7 -38 17 -38 22 0 6 -4 8 -9 4 -5 -3
-12 -1 -16 5 -3 5 -15 15 -27 21 -14 7 -18 7 -14 0 4 -5 -6 -4 -21 4 -15 8
-34 15 -40 15 -7 0 -13 5 -13 10 0 6 -9 10 -20 10 -12 0 -31 6 -43 13 -12 8
-29 13 -37 12 -8 0 -18 3 -21 8 -4 5 -18 10 -33 10 -14 0 -23 3 -20 8 5 8 -1
10 -43 12 -10 1 -20 4 -23 7 -3 3 -18 11 -33 18 -23 10 -27 10 -21 0 6 -10 5
-10 -7 -1 -8 6 -26 13 -39 15 -14 2 -29 6 -35 9 -5 4 -22 6 -37 5 -16 -1 -28
2 -28 7 0 4 -4 5 -10 2 -5 -3 -10 -1 -10 5 0 7 -6 10 -12 7 -7 -2 -21 0 -30 5
-12 6 -18 5 -18 -3 0 -8 -4 -8 -15 1 -8 7 -15 9 -15 4 0 -5 -4 -4 -8 2 -9 15
-53 21 -69 11 -8 -5 -13 -3 -13 3 0 6 -4 9 -9 5 -5 -3 -13 -1 -16 5 -5 8 -11
7 -21 -1 -11 -9 -14 -9 -14 1 0 8 -3 10 -7 7 -3 -4 -12 -2 -20 4 -9 8 -13 8
-13 1 0 -8 -13 -7 -38 2 -25 9 -44 11 -55 5 -10 -6 -18 -5 -22 1 -5 8 -11 7
-21 -1 -9 -7 -14 -7 -14 -1 0 5 -20 9 -44 9 -24 -1 -42 1 -39 6 2 4 0 7 -6 7
-5 0 -12 -6 -14 -12 -4 -10 -6 -10 -6 0 -1 6 -6 12 -12 12 -5 0 -7 -5 -3 -12
5 -7 3 -8 -5 -3 -18 11 -101 12 -101 2 0 -5 -7 -3 -17 4 -13 11 -17 11 -20 1
-3 -6 -10 -9 -15 -6 -15 9 -77 11 -91 2z"/>
</g>
</svg>
