<svg xmlns="http://www.w3.org/2000/svg" width="555.774" height="292.36" viewBox="0 0 555.774 292.36">
  <path id="php-white" d="M162.332,110.336h-21.86l-11.926,61.32h19.406q19.313,0,28.761-7.271,9.448-7.295,12.736-24.292,3.2-16.326-2.871-23.041C182.525,112.582,174.467,110.336,162.332,110.336ZM277.887,5.688C124.424,5.688,0,71.13,0,151.857S124.424,298.048,277.887,298.048s277.887-65.466,277.887-146.192S431.35,5.688,277.887,5.688ZM202.394,178.233a56.2,56.2,0,0,1-21.235,12.76c-7.781,2.5-17.715,3.8-29.757,3.8H124.053l-7.572,38.927H84.57L113.054,87.225H174.42q27.684,0,40.386,14.543,12.713,14.52,7.642,40.571a63.837,63.837,0,0,1-20.054,35.894Zm93.185,16.557,12.574-64.817c1.459-7.364.9-12.412-1.575-15.075q-3.717-4.029-15.909-4.029H265.382l-16.3,83.945H217.4L245.884,48.3H277.54l-7.572,38.95h28.206q26.642,0,36.727,9.286,10.108,9.274,6.09,30.081L327.745,194.79ZM471.5,142.339a64.424,64.424,0,0,1-7.063,19.614,66.134,66.134,0,0,1-12.991,16.28,56.5,56.5,0,0,1-21.235,12.76c-7.781,2.5-17.715,3.8-29.78,3.8H373.11l-7.572,38.951H333.626L362.11,87.248h61.344q27.685,0,40.386,14.543,12.713,14.485,7.665,40.548Zm-60.093-32H389.574l-11.949,61.32h19.406q19.348,0,28.761-7.271,9.448-7.295,12.76-24.292c2.13-10.884,1.135-18.572-2.895-23.041s-12.134-6.716-24.246-6.716Z" transform="translate(0 -5.688)" fill="#fff"/>
</svg>
