<svg id="ruby-white" xmlns="http://www.w3.org/2000/svg" width="437.938" height="437.939" viewBox="0 0 437.938 437.939">
  <path id="Path_252" data-name="Path 252" d="M4.293,110.143,114.2.236l48.848,109.908Z" transform="translate(121.042 6.64)" fill="#fff"/>
  <path id="Path_253" data-name="Path 253" d="M162.2,0,56.173,106.032,9.047,0Z" transform="translate(255.09)" fill="#fff"/>
  <path id="Path_254" data-name="Path 254" d="M.236,114.2l109.912,48.849V4.293Z" transform="translate(6.637 121.042)" fill="#fff"/>
  <path id="Path_255" data-name="Path 255" d="M106.029,56.172,0,9.047V162.2Z" transform="translate(0 255.094)" fill="#fff"/>
  <path id="Path_256" data-name="Path 256" d="M5,130.335,130.335,5H5Z" transform="translate(140.98 140.98)" fill="#fff"/>
  <path id="Path_257" data-name="Path 257" d="M125.164,380.952,11.093,114.78,125.164.707Z" transform="translate(312.774 19.938)" fill="#fff"/>
  <path id="Path_258" data-name="Path 258" d="M258.568,258.567,150.058,5.376,5.376,150.058Z" transform="translate(151.573 151.577)" fill="#fff"/>
  <path id="Path_259" data-name="Path 259" d="M114.777,11.093,380.94,125.161H.707Z" transform="translate(19.938 312.777)" fill="#fff"/>
</svg>
