<svg xmlns="http://www.w3.org/2000/svg" width="115.256" height="115.256" viewBox="0 0 115.256 115.256">
  <path id="Typescript-white" d="M0,0H115.256V115.256H0ZM76.837,46.1a15.367,15.367,0,0,0,0,30.735h7.684a7.684,7.684,0,0,1,0,15.367H76.837a7.684,7.684,0,0,1-7.684-7.684H61.47A15.367,15.367,0,0,0,76.837,99.889h7.684a15.367,15.367,0,0,0,0-30.735H76.837a7.684,7.684,0,0,1,0-15.367H85.8a6.4,6.4,0,0,1,6.4,6.4V61.47h7.684V60.189A14.087,14.087,0,0,0,85.8,46.1Zm-53.786,0H61.47v7.684H46.1v46.1H38.419v-46.1H23.051Z" fill="#fff" fill-rule="evenodd"/>
</svg>
