<svg xmlns="http://www.w3.org/2000/svg" width="512" height="512" viewBox="0 0 512 512">
  <path id="instagram-white" d="M256,0C397.29,0,512,114.71,512,256S397.29,512,256,512,0,397.29,0,256,114.71,0,256,0Zm0,96c-43.453,0-48.9.184-65.968.963-17.03.777-28.661,3.482-38.839,7.437A81.82,81.82,0,0,0,104.4,151.194c-3.955,10.177-6.659,21.808-7.437,38.838C96.184,207.1,96,212.547,96,256s.184,48.9.962,65.968c.778,17.03,3.482,28.661,7.437,38.838A81.818,81.818,0,0,0,151.193,407.6c10.178,3.954,21.809,6.659,38.839,7.436,17.066.779,22.515.963,65.968.963s48.9-.184,65.968-.963c17.03-.777,28.661-3.482,38.838-7.436A81.816,81.816,0,0,0,407.6,360.806c3.954-10.177,6.659-21.808,7.436-38.838C415.816,304.9,416,299.453,416,256s-.184-48.9-.963-65.968c-.777-17.03-3.482-28.661-7.436-38.838A81.818,81.818,0,0,0,360.806,104.4c-10.177-3.955-21.808-6.66-38.838-7.437C304.9,96.184,299.453,96,256,96Zm0,28.829c42.722,0,47.782.163,64.654.933,15.6.712,24.071,3.318,29.709,5.509a52.99,52.99,0,0,1,30.366,30.366c2.191,5.638,4.8,14.109,5.509,29.709.77,16.872.933,21.932.933,64.654s-.163,47.782-.933,64.654c-.711,15.6-3.318,24.071-5.509,29.709a52.99,52.99,0,0,1-30.366,30.366c-5.638,2.191-14.109,4.8-29.709,5.509-16.869.77-21.929.933-64.654.933s-47.784-.163-64.654-.933c-15.6-.711-24.071-3.318-29.709-5.509a52.982,52.982,0,0,1-30.366-30.366c-2.191-5.638-4.8-14.109-5.51-29.709-.77-16.872-.932-21.932-.932-64.654s.162-47.782.932-64.654c.712-15.6,3.319-24.071,5.51-29.709a52.982,52.982,0,0,1,30.366-30.366c5.638-2.191,14.109-4.8,29.709-5.509,16.872-.77,21.932-.933,64.654-.933Zm0,49.009A82.162,82.162,0,1,0,338.162,256,82.162,82.162,0,0,0,256,173.838Zm0,135.5A53.333,53.333,0,1,1,309.333,256,53.333,53.333,0,0,1,256,309.333ZM360.609,170.592a19.2,19.2,0,1,1-19.2-19.2A19.2,19.2,0,0,1,360.609,170.592Z" fill="#fff" fill-rule="evenodd"/>
</svg>
