<svg xmlns="http://www.w3.org/2000/svg" width="512" height="512" viewBox="0 0 512 512">
  <path id="linkedin-white" d="M256,0C397.29,0,512,114.71,512,256S397.29,512,256,512,0,397.29,0,256,114.71,0,256,0ZM175.963,399.871V199.95H109.5V399.871Zm239.62,0V285.225c0-61.409-32.787-89.976-76.509-89.976-35.255,0-51.047,19.389-59.889,33.007V199.95H212.738c.881,18.757,0,199.921,0,199.921h66.446V288.221c0-5.976.43-11.95,2.191-16.221,4.8-11.935,15.737-24.3,34.1-24.3,24.034,0,33.663,18.34,33.663,45.2V399.871h66.45ZM143.18,103.55c-22.74,0-37.6,14.95-37.6,34.545,0,19.182,14.4,34.544,36.717,34.544h.429c23.175,0,37.6-15.362,37.6-34.544-.43-19.6-14.424-34.545-37.149-34.545Z" fill="#fff" fill-rule="evenodd"/>
</svg>
