<svg xmlns="http://www.w3.org/2000/svg" width="510.4" height="510.388" viewBox="0 0 510.4 510.388">
  <g id="medium-black" transform="translate(-0.8 -0.806)">
    <path id="Path_272" data-name="Path 272" d="M511.2,256C511.2,115.155,396.851.806,256.006.806h-.012C115.149.806.8,115.155.8,256S115.149,511.194,255.994,511.194h.012C396.851,511.194,511.2,396.845,511.2,256Zm-229.576,0c0,62.731-50.508,113.584-112.81,113.584S56,318.721,56,256s50.508-113.588,112.814-113.588S281.624,193.271,281.624,256Zm123.757,0c0,59.048-25.255,106.934-56.407,106.934S292.567,315.05,292.567,256s25.25-106.935,56.4-106.935S405.377,196.939,405.377,256ZM456,256c0,52.892-8.881,95.8-19.838,95.8s-19.835-42.892-19.835-95.8,8.88-95.8,19.835-95.8S456,203.094,456,256Z" fill="#1e1e1e" fill-rule="evenodd"/>
  </g>
</svg>
