<svg xmlns="http://www.w3.org/2000/svg" width="27.647" height="38.706" viewBox="0 0 27.647 38.706">
  <g id="Layer_1" transform="translate(85 48)">
    <g id="Group_327" data-name="Group 327" transform="translate(-85 -48)">
      <path id="Path_239" data-name="Path 239" d="M12.922,5.5a.922.922,0,0,0,0,1.843,3.624,3.624,0,0,1,3.62,3.62.922.922,0,1,0,1.843,0A5.47,5.47,0,0,0,12.922,5.5Z" transform="translate(0.902 2.794)" fill="#1e1e1e"/>
      <path id="Path_240" data-name="Path 240" d="M18.823,1A13.8,13.8,0,0,0,7.348,22.5a1.7,1.7,0,0,0,.147.249c3.364,4.8,3.955,6.322,3.955,7.741V36.02a1.844,1.844,0,0,0,1.843,1.843H16.98a1.851,1.851,0,0,0,3.152,1.309,1.938,1.938,0,0,0,.535-1.309h3.686A1.844,1.844,0,0,0,26.2,36.02V30.49c0-1.441.588-2.967,3.93-7.739A13.8,13.8,0,0,0,18.823,1ZM22.51,34.176H15.137V32.333H22.51Zm4.6-13.541c-2.7,3.858-3.95,6.062-4.4,8.012H20.667V24.961a1.843,1.843,0,0,0-3.686,0v3.686H14.929c-.442-1.9-1.655-4.055-4.25-7.778a1.973,1.973,0,0,0-.142-.238,10.137,10.137,0,1,1,16.572,0Z" transform="translate(-5 -1)" fill="#1e1e1e"/>
    </g>
  </g>
</svg>
