<svg xmlns="http://www.w3.org/2000/svg" width="115.256" height="115.256" viewBox="0 0 115.256 115.256">
  <path id="Nextjs-black" d="M34.577,34.577l3.115-2.249a3.842,3.842,0,0,0-6.956,2.249Zm23.051,73A49.944,49.944,0,0,1,7.684,57.628H0a57.628,57.628,0,0,0,57.628,57.628Zm49.944-49.944a49.944,49.944,0,0,1-49.944,49.944v7.684a57.628,57.628,0,0,0,57.628-57.628ZM57.628,7.684a49.944,49.944,0,0,1,49.944,49.944h7.684A57.628,57.628,0,0,0,57.628,0Zm0-7.684A57.628,57.628,0,0,0,0,57.628H7.684A49.944,49.944,0,0,1,57.628,7.684ZM38.419,92.2V34.577H30.735V92.2ZM31.462,36.826,81.407,105.98l6.228-4.5L37.691,32.327Zm45.375-6.091v46.1h7.684v-46.1Z"/>
</svg>
