<svg xmlns="http://www.w3.org/2000/svg" width="665.397" height="716.724" viewBox="0 0 665.397 716.724">
  <path id="postgre-black" d="M478.435,0A278.055,278.055,0,0,0,399.7,12.035l-1.8.6A299.106,299.106,0,0,0,349.034,7.7c-33.665-.6-62.585,7.944-85.9,22.159-22.977-8.332-70.644-22.7-120.884-19.83-34.979,2-73.159,13.11-101.451,44.318C12.588,85.56-2.329,133.849.814,199.55c.857,18.127,5.8,47.692,14,85.978S34.536,368.638,48.91,409.522c14.375,40.913,30.121,77.646,54.726,102.612,12.288,12.513,29.206,23.025,49.154,22.159,14-.6,26.663-7.018,37.58-16.485,5.315,7.317,11,10.512,16.175,13.469a76.473,76.473,0,0,0,19.433,7.944c11.8,3.076,32.007,7.2,55.67,2.986a101.919,101.919,0,0,0,25.006-8.063c.314,9.855.686,19.5,1.057,29.267,1.172,30.939,1.915,59.518,10.8,84.574,1.429,4.091,5.344,25.175,20.776,43.78,15.432,18.635,45.667,30.252,80.1,22.547,24.291-5.435,55.184-15.231,75.7-45.751,20.29-30.162,29.435-73.435,31.236-143.615.457-3.793,1-7.018,1.572-10.034l4.83.448h.572c25.92,1.224,54.041-2.628,77.531-14.036,20.8-10.064,36.551-20.248,48.011-38.315a39.352,39.352,0,0,0,6.859-19.2c.857-9.317-4.258-23.891-12.746-30.61-17-13.5-27.692-8.362-39.152-5.883a171.847,171.847,0,0,1-34.35,4.36c33.036-58.145,56.727-119.9,70.244-174.554,8-32.253,12.489-62,12.86-88.008s-1.658-49.036-16.575-68.955C599.376,17.918,533.847.717,483.15.119c-1.572-.03-3.144-.06-4.715-.03Zm-1.343,19.113C525.045,18.635,586.316,32.7,630.3,91.443c9.888,13.2,12.831,32.492,12.489,56.263-.372,23.742-4.572,52.172-12.26,83.32-14.918,60.325-43.1,130.654-82.79,193.756a21.332,21.332,0,0,0,4.515,2.568c8.288,3.584,27.177,6.66,64.872-1.433,9.488-2.09,16.432-3.494,23.634,2.24a15.858,15.858,0,0,1,5.23,12.692,21.587,21.587,0,0,1-3.715,10.034c-7.287,11.438-21.662,22.278-40.095,31.208-16.318,7.944-39.723,12.095-60.471,12.334-10.4.119-20-.717-28.149-3.375l-.514-.209C509.9,522.5,502.668,585,497.953,613.521c-3.772,23-10.374,41.272-22.977,54.949-12.574,13.678-30.378,21.92-54.326,27.3-29.664,6.66-51.3-.508-65.243-12.782-13.917-12.244-20.29-28.49-24.12-38.435-2.629-6.869-4-15.768-5.315-27.654s-2.286-26.429-2.944-42.825q-1.313-37.656-.857-75.346a86.047,86.047,0,0,1-44.353,22.7c-19.69,3.494-37.265.06-47.754-2.688a63.381,63.381,0,0,1-14.86-6c-4.858-2.718-9.488-5.794-12.574-11.856A17.385,17.385,0,0,1,201,489.5a18.3,18.3,0,0,1,6.23-9.885c5.658-4.808,13.146-7.5,24.434-9.945,20.547-4.42,27.72-7.436,32.093-11.05,3.715-3.106,7.916-9.377,15.346-18.575q-.053-.611-.086-1.224a81.791,81.791,0,0,1-38.008-10.691c-4.287,4.718-26.177,28.908-52.869,62.475-11.231,14.036-23.634,22.1-36.722,22.667-13.089.6-24.92-6.3-34.979-16.485-20.09-20.4-36.122-55.487-50.1-95.146C52.4,361.978,41.052,317.81,32.993,280.182c-8.088-37.628-12.86-67.97-13.546-82.6-3-62.176,10.917-104.075,34.779-130.5,23.891-26.429,56.641-36.434,88.563-38.345,57.3-3.434,111.711,17.44,122.713,21.92,21.2-15.051,48.525-24.429,82.647-23.831a202.615,202.615,0,0,1,48.039,6.51l.572-.269a189.453,189.453,0,0,1,21.119-6.391,263.839,263.839,0,0,1,59.184-7.5Zm4.344,20.009h-4.172a239.479,239.479,0,0,0-48.7,5.734c35.608,16.485,62.5,41.869,81.447,67.193a254.8,254.8,0,0,1,32.35,57.338,141.613,141.613,0,0,1,6.459,19.71,42.612,42.612,0,0,1,1.143,7.048,13.714,13.714,0,0,1-.343,4.3,2.3,2.3,0,0,1-.171.388c.857,26.161-5.344,43.9-6.087,68.866-.572,18.1,3.858,39.36,4.944,62.565,1.029,21.8-1.486,45.751-15.032,69.254,1.143,1.433,2.172,2.867,3.258,4.3,35.836-58.981,61.671-124.233,75.445-179.869,7.373-29.953,11.288-57.1,11.631-78.6.286-21.5-3.544-37.091-8.43-43.6C576.828,52.5,524.931,39.45,481.435,39.092ZM344.548,46.767c-33.779.09-58.013,10.751-76.388,26.728-18.947,16.515-31.664,39.122-40.009,62.266-9.916,27.475-13.317,54.053-14.66,72.091l.372-.239a144.347,144.347,0,0,1,37.951-15.41c14.346-3.434,29.807-4.509,43.81,1.165S321.2,212.391,325.4,232.639c20.119,97.266-6.259,133.431-15.975,160.727a296.231,296.231,0,0,0-9.459,30.252,27.031,27.031,0,0,1,3.687-.776c6.859-.6,12.231,1.792,15.432,3.225,9.774,4.241,16.489,13.14,20.119,23.294a42.528,42.528,0,0,1,2.029,8.481,10.446,10.446,0,0,1,.572,3.793q-1.625,55.806.371,111.631c.657,16.066,1.629,30.222,2.858,41.391,1.229,11.139,2.972,19.62,4.087,22.487,3.658,9.556,9,22.069,18.661,30.58,9.659,8.481,23.52,14.155,48.839,8.481,21.948-4.928,35.494-11.766,44.553-21.592,9.031-9.825,14.432-23.5,17.89-44.437,5.173-31.357,15.575-122.292,16.832-139.4-.572-12.9,1.257-22.816,5.2-30.371a34.378,34.378,0,0,1,15.775-15.081,52.164,52.164,0,0,1,7.345-2.777q-3.313-4.975-6.944-9.706a134.339,134.339,0,0,1-19.033-32.82q-3.444-7.337-7.345-14.424c-3.8-7.167-8.6-16.126-13.632-26.191-10.059-20.158-21-44.587-26.692-68.388-5.658-23.772-6.487-48.379,8.03-65.73,12.86-15.41,35.436-21.8,69.33-18.217-1-3.136-1.6-5.734-3.286-9.915a235.985,235.985,0,0,0-29.75-52.68C466.175,86.1,419.679,48.051,347.834,46.826h-3.286ZM154.734,48.32c-3.629,0-7.259.119-10.86.328C115.011,50.38,87.719,59.13,68.2,80.752,48.653,102.373,35.793,137.821,38.594,196.5c.543,11.109,5.173,42.227,13.117,79.2,7.916,36.971,19.147,80.483,32.636,118.917,13.517,38.435,29.892,71.882,45.439,87.71,7.83,7.914,14.632,11.109,20.8,10.841,6.2-.3,13.66-4.032,22.777-15.469q24.932-31.428,51.726-61.161c-25.745-23.359-38.317-58.822-33.351-94.071a387.645,387.645,0,0,0,3-59.011c-.343-15.887-1.429-26.459-1.429-33.059q-.008-.284,0-.567v-.149l-.029-.179v-.03A307.387,307.387,0,0,1,210.2,128.653c8-22.219,19.919-44.8,37.78-63.072-17.547-6.032-48.7-15.231-82.418-16.963q-5.425-.291-10.86-.3ZM509.041,206.06c-19.4.269-30.292,5.495-36.008,12.334-8.088,9.706-8.859,26.728-3.829,47.692,5,20.994,15.346,44.467,25.063,63.968,4.858,9.765,9.574,18.545,13.374,25.683,3.829,7.167,6.63,12.244,8.345,16.574a97.834,97.834,0,0,0,5.087,10.811c7.516-16.574,8.859-32.85,8.088-49.813-1-20.994-5.658-42.466-4.973-64.207.772-25.414,5.573-41.959,6-61.609A158.526,158.526,0,0,0,509.041,206.06Zm-235.309,3.434a77.291,77.291,0,0,0-17.6,2.21,129.939,129.939,0,0,0-32.95,13.409,68.852,68.852,0,0,0-9.974,6.809l-.629.6c.171,4.36,1,14.932,1.343,30.491a409.049,409.049,0,0,1-3.2,62.236c-6.83,51.067,28.635,93.354,70.3,93.414,2.429-10.482,6.43-21.114,10.431-32.313,11.6-32.671,34.436-56.5,15.2-149.5-3.144-15.23-9.374-21.382-17.947-24.847a40.478,40.478,0,0,0-14.975-2.509Zm226.25,6.092h1.429a24.054,24.054,0,0,1,5.144.657,11.464,11.464,0,0,1,3.944,1.643,4.907,4.907,0,0,1,2.143,3.285l-.029.239h0a7.417,7.417,0,0,1-1,4.032,19.93,19.93,0,0,1-3.144,4.48,19.133,19.133,0,0,1-11.031,6.331,16.31,16.31,0,0,1-11.717-3.076,17.675,17.675,0,0,1-3.715-3.524,7.9,7.9,0,0,1-1.8-3.793,5.226,5.226,0,0,1,1.2-3.823,11.047,11.047,0,0,1,3.344-2.688,30.9,30.9,0,0,1,10.659-3.464,35.358,35.358,0,0,1,4.572-.388ZM276.5,220.6a33.037,33.037,0,0,1,4.744.388,30.352,30.352,0,0,1,11.231,3.643,12.859,12.859,0,0,1,3.8,3.166,6.859,6.859,0,0,1,1.543,5.077,9.187,9.187,0,0,1-2.143,4.6,18.868,18.868,0,0,1-4.087,3.882,17.694,17.694,0,0,1-12.8,3.375,20.564,20.564,0,0,1-12-6.809,21.207,21.207,0,0,1-3.372-4.9,8.664,8.664,0,0,1-1.172-5.286c.429-3.225,2.972-4.9,5.458-5.823a23.754,23.754,0,0,1,8.773-1.195Zm258.915,219.29-.086.03c-4.2,1.583-7.659,2.24-10.574,3.584a13.131,13.131,0,0,0-6.83,6.391c-1.8,3.434-3.344,9.526-2.886,19.889a14.308,14.308,0,0,0,4.23,2.09c4.887,1.553,13.089,2.568,22.234,2.419,18.233-.209,40.666-4.659,52.583-10.452a112.518,112.518,0,0,0,26.949-18.366h-.029c-39.809,8.6-62.3,6.3-76.1.358a37.3,37.3,0,0,1-9.488-5.973ZM305.91,442.7h-.6c-1.515.149-3.715.687-7.973,5.614-9.945,11.647-13.432,18.964-21.633,25.8-8.2,6.809-18.861,10.452-40.152,15.021a53.156,53.156,0,0,0-13.174,4.3,7.484,7.484,0,0,0,2,1.583,46.458,46.458,0,0,0,10.345,4.241c9.145,2.389,24.177,5.166,39.866,2.389,15.689-2.807,32.007-10.661,45.924-31.058,2.4-3.524,2.658-8.72.686-14.3-2-5.585-6.373-10.393-9.459-11.736a18.064,18.064,0,0,0-5.83-1.792Z" transform="translate(-0.4)"/>
</svg>
