<svg xmlns="http://www.w3.org/2000/svg" width="445.977" height="396.799" viewBox="0 0 445.977 396.799">
  <path id="react-black" d="M222.988,159.967a39.748,39.748,0,1,0,39.748,39.748A39.748,39.748,0,0,0,222.988,159.967ZM111.643,278.782l-8.771-2.23C37.5,260.033,0,231.992,0,199.64s37.5-60.393,102.872-76.912l8.771-2.211,2.471,8.7A437.235,437.235,0,0,0,139.442,195.7l1.877,3.958-1.877,3.958A433.1,433.1,0,0,0,114.114,270.1l-2.471,8.678ZM98.8,143.038c-49.689,13.955-80.183,35.306-80.183,56.6,0,21.277,30.494,42.628,80.183,56.6a463.628,463.628,0,0,1,21.964-56.6,459.951,459.951,0,0,1-21.964-56.6ZM334.334,278.782l-2.471-8.715A434.026,434.026,0,0,0,306.516,203.6l-1.877-3.958,1.877-3.958a435.2,435.2,0,0,0,25.346-66.488l2.471-8.7,8.789,2.211c65.354,16.52,102.853,44.56,102.853,76.931s-37.5,60.393-102.853,76.912ZM325.21,199.64a459.466,459.466,0,0,1,21.964,56.6c49.708-13.974,80.183-35.325,80.183-56.6,0-21.3-30.494-42.628-80.183-56.6a460.625,460.625,0,0,1-21.964,56.6ZM98.672,142.945,96.2,134.267C77.823,69.489,83.4,23.07,111.494,6.867c27.558-15.906,71.8,2.88,118.165,50.47l6.318,6.485-6.318,6.485a437.652,437.652,0,0,0-45.006,55.134l-2.509,3.586-4.367.372a439.6,439.6,0,0,0-70.334,11.335l-8.771,2.211ZM133.9,19.744a25.928,25.928,0,0,0-13.1,3.215c-18.471,10.648-21.741,47.664-9.012,97.613a466.817,466.817,0,0,1,60.077-9.31A461.721,461.721,0,0,1,210,63.989C181.011,35.762,153.565,19.744,133.9,19.744ZM312.091,398.118h0c-26.48,0-60.486-19.939-95.773-56.174L210,335.458l6.318-6.485a437.243,437.243,0,0,0,44.988-55.152l2.509-3.586,4.348-.372a439.1,439.1,0,0,0,70.371-11.317l8.771-2.211,2.49,8.7c18.341,64.741,12.785,111.178-15.312,127.363a44.226,44.226,0,0,1-22.392,5.723Zm-76.113-62.827c28.988,28.227,56.435,44.245,76.095,44.245h.019a25.857,25.857,0,0,0,13.082-3.215c18.471-10.648,21.76-47.682,9.012-97.632a464.931,464.931,0,0,1-60.1,9.31A458.5,458.5,0,0,1,235.977,335.291ZM347.3,142.945l-8.771-2.211A436.287,436.287,0,0,0,268.162,129.4l-4.348-.372-2.509-3.586a435.092,435.092,0,0,0-44.988-55.134L210,63.821l6.318-6.485c46.344-47.571,90.57-66.358,118.165-50.47,28.1,16.2,33.671,62.623,15.312,127.382l-2.49,8.7ZM274.09,111.262a463.413,463.413,0,0,1,60.1,9.31c12.747-49.949,9.458-86.965-9.012-97.613-18.359-10.611-52.867,5.649-89.2,41.03a461.761,461.761,0,0,1,38.112,47.274ZM133.9,398.118a44.226,44.226,0,0,1-22.41-5.723c-28.1-16.185-33.671-62.6-15.293-127.363l2.453-8.7,8.771,2.211a438.608,438.608,0,0,0,70.334,11.317l4.367.372,2.49,3.586a438.467,438.467,0,0,0,45.006,55.152l6.318,6.485-6.318,6.485c-35.269,36.236-69.275,56.174-95.718,56.174ZM111.791,278.689c-12.747,49.949-9.458,86.984,9.012,97.632,18.341,10.462,52.83-5.668,89.2-41.03A464.528,464.528,0,0,1,171.868,288a464.117,464.117,0,0,1-60.077-9.31Zm111.2,11.67c-15.293,0-31.014-.669-46.753-1.97l-4.367-.372-2.509-3.586Q156.006,265.243,144.273,245q-11.687-20.243-21.667-41.4l-1.858-3.958,1.858-3.958q9.97-21.142,21.667-41.4c7.693-13.3,16.148-26.573,25.086-39.432l2.509-3.586,4.367-.372a553.473,553.473,0,0,1,93.525,0l4.348.372,2.49,3.586a557.575,557.575,0,0,1,46.772,80.833l1.877,3.958L323.37,203.6A550.045,550.045,0,0,1,276.6,284.431l-2.49,3.586-4.348.372c-15.739,1.3-31.479,1.97-46.772,1.97Zm-40.825-20.143a539.707,539.707,0,0,0,81.669,0,538.991,538.991,0,0,0,40.807-70.576,531.176,531.176,0,0,0-40.825-70.576,539.465,539.465,0,0,0-81.651,0,529.168,529.168,0,0,0-40.826,70.576,541,541,0,0,0,40.826,70.576Z" transform="translate(0 -1.324)"/>
</svg>
