<svg xmlns="http://www.w3.org/2000/svg" width="381.701" height="381.701" viewBox="0 0 381.701 381.701">
  <path id="sass-black" d="M190.85,0C296.248,0,381.7,85.453,381.7,190.85S296.248,381.7,190.85,381.7,0,296.248,0,190.85,85.453,0,190.85,0ZM152.919,254.435a48.775,48.775,0,0,1-.382,28.5L151.5,285.8c-.382.97-.827,1.909-1.241,2.8a53.5,53.5,0,0,1-8.827,12.882c-11.1,12.071-26.592,16.652-33.24,12.8-7.157-4.167-3.594-21.232,9.288-34.83,13.853-14.6,33.717-24,33.717-24v-.048ZM310.546,81.7C301.925,47.776,245.7,36.627,192.5,55.537,160.871,66.782,126.6,84.451,101.962,107.5,72.65,134.868,67.99,158.724,69.915,168.7c6.791,35.164,54.981,58.162,74.8,75.227v.1c-5.837,2.863-48.6,24.318-58.623,46.52-10.735,23.379,1.67,40.094,9.781,42.226,25.049,6.934,50.814-5.726,64.651-26.226,13.36-20.055,12.183-45.82,6.425-58.464,7.888-2.147,17.177-3.1,29.1-1.654,33.415,3.817,40.094,24.811,38.647,33.4-1.431,8.572-8.318,13.582-10.719,15.014-2.386,1.447-3.1,1.909-2.879,2.879.239,1.431,1.447,1.431,3.34,1.193,2.624-.477,17.431-7.157,18.147-23.4.716-20.516-18.862-43.4-53.677-42.941-14.314.254-23.4,1.447-29.82,4.071a5.761,5.761,0,0,0-1.67-1.67c-21.471-23.141-61.311-39.363-59.641-70.138.477-11.212,4.533-40.778,76.34-76.563,58.925-29.359,105.938-21.232,114.049-3.34,11.658,25.51-25.065,73-86.376,79.9-23.379,2.624-35.546-6.425-38.663-9.781-3.324-3.578-3.8-3.817-4.994-3.085-1.909.954-.716,4.056,0,5.964,1.908,4.771,9.3,13.121,22.2,17.415,11.2,3.578,38.647,5.71,71.569-7.157,36.961-14.3,65.827-54.154,57.478-87.553l1.161,1.066Z"/>
</svg>
