<svg xmlns="http://www.w3.org/2000/svg" width="495.256" height="297.745" viewBox="0 0 495.256 297.745">
  <path id="tailwind-black" d="M410.586,93.2a104.5,104.5,0,0,1-47.3-33.182A142.881,142.881,0,0,0,249.628,6.284a116.88,116.88,0,0,0-123.814,99.051,79.984,79.984,0,0,1,86.67-36.9,106.976,106.976,0,0,1,47.3,33.43,142.881,142.881,0,0,0,113.661,52.992A116.88,116.88,0,0,0,497.256,55.81,79.241,79.241,0,0,1,410.586,93.2ZM88.67,216.52a104.5,104.5,0,0,1,47.3,33.182,142.882,142.882,0,0,0,113.661,53.735,116.88,116.88,0,0,0,123.814-99.051,79.984,79.984,0,0,1-86.67,36.9,106.975,106.975,0,0,1-47.3-33.43,143.624,143.624,0,0,0-113.661-52.992A116.88,116.88,0,0,0,2,253.912,79.241,79.241,0,0,1,88.67,216.52Z" transform="translate(-2 -5.988)"/>
</svg>
