<svg xmlns="http://www.w3.org/2000/svg" width="384" height="384" viewBox="0 0 384 384">
  <path id="wordpress-black" d="M255.9,64C150.2,64,64,150.2,64,256.1,64,361.9,150.2,448,255.9,448a156.975,156.975,0,0,0,24.9-1.8c85.7-11,153.8-78.7,165.3-164.1a172.069,172.069,0,0,0,1.9-26C448,150.2,361.8,64,255.9,64ZM83.4,256.1a171.251,171.251,0,0,1,15-70.2l82.3,225.5A172.7,172.7,0,0,1,83.4,256.1ZM278.3,427.3a183.273,183.273,0,0,1-22.4,1.4,169.5,169.5,0,0,1-48.6-7.1l18.8-55h.1l32.7-95.5L312,416.5c.4.8.9,1.6,1.3,2.3A177.131,177.131,0,0,1,278.3,427.3Zm1.5-252.2c10.4-.5,19.7-1.6,19.7-1.6,9.4-1,8.2-14.8-1.1-14.2,0,0-28,2.2-46,2.2-16.9,0-45.5-2.2-45.5-2.2-9.2-.6-10.4,13.7-1,14.2,0,0,8.7,1.1,18.1,1.6l26.9,73.7L213.1,362.1l-62.9-187c10.5-.5,19.8-1.6,19.8-1.6,9.2-1,8.2-14.8-1.1-14.2,0,0-27.9,2.2-46,2.2-3.3,0-7.1-.1-11.1-.2a172.69,172.69,0,0,1,260.7-32.5c-.8,0-1.5-.1-2.3-.1-17,0-29,14.8-29,30.7,0,14.2,8.2,26.2,16.9,40.4,6.6,11.5,14.3,26.3,14.3,47.6q0,22.2-13.1,55.7L342,360.7Zm62.9,230.2,13.7-39.7,39-112.8c9.9-24.6,13.1-44.3,13.1-61.8a141.727,141.727,0,0,0-1.1-17.8,171.656,171.656,0,0,1,21.2,82.9,181.91,181.91,0,0,1-1.5,23.5A172.971,172.971,0,0,1,342.7,405.3Z" transform="translate(-64 -64)"/>
</svg>
