<svg id="xd-black" xmlns="http://www.w3.org/2000/svg" width="512" height="512" viewBox="0 0 512 512">
  <g id="Group_329" data-name="Group 329">
    <path id="Path_246" data-name="Path 246" d="M0,0V512H512V0ZM489.471,489.475H22.525V22.529H489.47V489.475Z"/>
    <g id="Group_328" data-name="Group 328">
      <path id="Path_247" data-name="Path 247" d="M265.8,137.064h-40l-42.932,89.794-43.508-89.794h-41.2l58.308,116.594L96.077,373.047H136.79l43.7-91.5,44.209,91.5h44.067L206.525,252.256Zm110.563,0v60H364.833c-39.329,0-86.875,25.363-86.875,90.145,0,50.081,25.375,87.723,79.422,87.723,39.8,0,58.544-13.766,58.544-13.766V137.064Zm-.038,203.4s-4.555,2.005-15.3,2.005-43.722-4.736-43.722-57.022,37.894-56.474,47-56.474,12.025,2.552,12.025,2.552V340.466Z"/>
    </g>
  </g>
</svg>
